<?xml version="1.0" encoding="UTF-8" standalone="no"?><!DOCTYPE svg PUBLIC "-//W3C//DTD SVG 1.1//EN" "http://www.w3.org/Graphics/SVG/1.1/DTD/svg11.dtd"><svg width="100%" height="100%" viewBox="0 0 392 392" version="1.1" xmlns="http://www.w3.org/2000/svg" xmlns:xlink="http://www.w3.org/1999/xlink" xml:space="preserve" xmlns:serif="http://www.serif.com/" style="fill-rule:evenodd;clip-rule:evenodd;stroke-linejoin:round;stroke-miterlimit:2;"><rect x="0" y="0" width="392" height="392" style="fill:#fff;"/><path d="M10.444,10.444l0,104.301l104.301,0l0,-104.301l-104.301,-0Zm134.102,0l0,14.9l29.8,0l0,14.9l29.8,0l0,-14.9l29.8,0l0,14.9l-14.9,0l0,14.9l14.9,0l0,14.9l-14.9,0l0,14.9l14.9,0l0,14.9l14.9,0l0,14.9l-14.9,0l0,-14.9l-14.9,0l0,14.9l14.9,0l0,14.9l14.9,0l0,29.8l14.9,0l0,14.9l-29.8,0l0,14.9l29.8,0l0,14.9l14.9,0l0,14.9l-14.9,0l0,14.9l14.9,0l0,14.9l-29.8,0l0,-14.9l-44.701,0l0,-14.9l14.9,0l0,-44.701l-14.9,0l0,14.9l-29.8,0l0,14.9l14.9,0l0,14.9l-14.9,0l0,-14.9l-29.8,0l0,44.701l14.9,0l0,14.9l14.9,0l0,14.9l14.9,0l0,14.9l14.9,0l0,-14.9l-14.9,0l0,-14.9l14.9,0l0,14.9l14.9,0l0,-14.9l-14.9,0l0,-14.9l44.701,0l0,14.9l-14.9,0l0,29.8l14.9,0l0,44.701l14.9,0l0,-14.9l29.8,0l0,29.8l29.8,0l0,14.9l14.9,0l0,-14.9l-14.9,0l0,-14.9l14.9,0l0,14.9l14.9,0l0,-29.8l-14.9,0l0,-14.9l14.9,0l0,-14.9l-14.9,0l0,-29.8l14.9,0l0,-14.9l-29.8,0l0,-29.8l-14.9,0l0,-14.9l-14.9,0l0,-14.9l-14.9,0l0,-14.9l14.9,0l0,-29.8l29.8,0l0,-14.9l-44.701,0l0,29.8l-14.9,0l0,-134.102l-14.9,0l0,-14.9l-59.601,0l0,14.9l-14.9,0l0,-14.9l-29.8,0Zm134.102,0l0,104.301l104.301,0l0,-104.301l-104.301,-0Zm-178.802,14.9l-0,74.501l-74.501,0l0,-74.501l74.501,0Zm29.8,0l0,29.8l14.9,0l0,14.9l29.8,0l0,14.9l14.9,0l0,74.501l29.8,0l0,-14.9l14.9,0l0,-14.9l-29.8,0l0,-59.601l-29.8,0l0,-29.8l-29.8,0l0,-14.9l-14.9,0Zm238.403,0l0,74.501l-74.501,0l0,-74.501l74.501,0Zm-327.804,14.9l0,44.701l44.701,0l0,-44.701l-44.701,0Zm268.203,0l0,44.701l44.701,0l0,-44.701l-44.701,0Zm-178.802,29.8l0,59.601l29.8,0l0,29.8l-14.9,0l0,-14.9l-14.9,0l0,-14.9l-29.8,0l0,14.9l29.8,0l0,14.9l14.9,0l0,14.9l29.8,0l0,-44.701l-14.9,0l0,-14.9l-14.9,0l0,-14.9l14.9,0l0,14.9l14.9,0l0,-14.9l-14.9,0l0,-14.9l-14.9,0l0,-14.9l-14.9,0Zm-119.201,59.601l0,14.9l14.9,0l0,14.9l29.8,0l0,-14.9l-14.9,0l0,-14.9l-29.8,0Zm44.701,0l0,14.9l14.9,0l0,-14.9l-14.9,0Zm283.103,0l0,14.9l29.8,0l0,14.9l-14.9,0l0,14.9l29.8,0l0,-29.8l-14.9,0l0,-14.9l-29.8,0Zm-238.403,29.8l-0,14.9l14.9,0l0,14.9l14.9,0l0,-14.9l-14.9,0l0,-14.9l-14.9,0Zm208.602,0l0,14.9l14.9,0l0,-14.9l-14.9,0Zm-298.004,14.9l-0,14.9l14.9,0l0,14.9l14.9,0l0,29.8l14.9,0l0,-14.9l14.9,0l0,29.8l14.9,0l0,-44.701l-44.701,0l0,-14.9l-14.9,0l0,-14.9l-14.9,0Zm59.601,0l0,14.9l14.9,0l0,-14.9l-14.9,0Zm29.8,14.9l0,14.9l14.9,0l0,-14.9l-14.9,0Zm223.503,0l0,29.8l14.9,0l0,14.9l14.9,0l0,14.9l14.9,0l0,-14.9l-14.9,0l0,-29.8l-14.9,0l0,-14.9l-14.9,0Zm29.8,0l0,14.9l14.9,0l0,29.8l14.9,0l0,-44.701l-29.8,0Zm-342.704,29.8l-0,14.9l14.9,0l0,14.9l-14.9,0l0,14.9l29.8,0l0,-29.8l-14.9,0l0,-14.9l-14.9,0Zm89.401,0l0,14.9l29.8,0l0,-14.9l-29.8,0Zm59.601,14.9l0,-14.9l14.9,0l0,14.9l14.9,0l0,14.9l-14.9,0l0,-14.9l-14.9,0Zm149.002,0l0,14.9l-14.9,0l0,-14.9l14.9,0Zm-253.303,14.9l0,14.9l14.9,0l0,-14.9l-14.9,0Zm44.701,0l0,14.9l14.9,0l0,-14.9l-14.9,0Zm29.8,14.9l0,29.8l14.9,0l0,14.9l14.9,0l0,14.9l29.8,0l0,14.9l14.9,0l0,14.9l-14.9,0l0,14.9l14.9,0l0,14.9l14.9,0l0,-14.9l14.9,0l0,14.9l74.501,0l0,-14.9l-14.9,0l0,-14.9l-14.9,0l0,14.9l-14.9,0l0,-14.9l-14.9,0l0,-14.9l-44.701,0l0,-14.9l29.8,0l0,-14.9l-59.601,0l0,-14.9l-29.8,0l0,-29.8l-14.9,0Zm178.802,0l0,44.701l-44.701,0l0,-44.701l44.701,0Zm59.601,0l0,14.9l-14.9,0l0,14.9l29.8,0l0,-29.8l-14.9,0Zm-357.604,14.9l-0,104.301l104.301,0l0,-104.301l-104.301,0Zm268.203,0l0,14.9l14.9,0l0,-14.9l-14.9,0Zm-178.802,14.9l-0,74.501l-74.501,0l0,-74.501l74.501,0Zm-59.601,14.9l0,44.701l44.701,0l0,-44.701l-44.701,0Zm89.401,14.9l0,14.9l14.9,0l0,14.9l14.9,0l0,14.9l14.9,0l0,-14.9l-14.9,0l0,-14.9l-14.9,0l0,-14.9l-14.9,0Zm238.403,14.9l0,14.9l14.9,0l0,-14.9l-14.9,0Zm-238.403,14.9l0,29.8l14.9,0l0,-29.8l-14.9,0Zm223.503,14.9l0,14.9l29.8,0l0,-14.9l-29.8,0Z"/></svg>